<svg xmlns="http://www.w3.org/2000/svg" width="186" height="60.305" viewBox="0 0 186 60.305">
  <g id="logo" transform="translate(-94 -98.695)">
    <g id="logo_img" transform="translate(94 105.908)">
      <rect id="Rectangle_1" data-name="Rectangle 1" width="13" height="14" transform="translate(0 5.092)" fill="#fff"/>
      <rect id="Rectangle_2" data-name="Rectangle 2" width="13" height="14" transform="translate(0 21.293)" fill="#fff"/>
      <rect id="Rectangle_3" data-name="Rectangle 3" width="13" height="14" transform="translate(0 37.787)" fill="#fff"/>
      <rect id="Rectangle_4" data-name="Rectangle 4" width="13" height="14" transform="translate(17.658 21.293)" fill="#fff"/>
      <rect id="Rectangle_5" data-name="Rectangle 5" width="13" height="14" transform="translate(17.658 37.787)" fill="#fff"/>
      <rect id="Rectangle_6" data-name="Rectangle 6" width="13" height="14" transform="translate(35.317 37.787)" fill="#fff"/>
      <g id="Rectangle_7" data-name="Rectangle 7" transform="matrix(0.788, -0.616, 0.616, 0.788, 15.056, 8.004)" fill="none" stroke="#fff" stroke-width="2">
        <rect width="13" height="14" stroke="none"/>
        <rect x="1" y="1" width="11" height="12" fill="none"/>
      </g>
      <g id="Rectangle_8" data-name="Rectangle 8" transform="matrix(0.788, -0.616, 0.616, 0.788, 32.231, 24.561)" fill="none" stroke="#fff" stroke-width="2">
        <rect width="13" height="14" stroke="none"/>
        <rect x="1" y="1" width="11" height="12" fill="none"/>
      </g>
      <g id="Path_1" data-name="Path 1" transform="translate(36.163 0.518)" fill="none">
        <path d="M0,0H13V14H0Z" stroke="none"/>
        <path d="M 2 2 L 2 12 L 11 12 L 11 2 L 2 2 M 0 0 L 13 0 L 13 14 L 0 14 L 0 0 Z" stroke="none" fill="#fff"/>
      </g>
    </g>
    <text id="DM_Lab" data-name="DM Lab" transform="translate(153 115)" fill="#fff" font-size="30" font-family="Calibri"><tspan x="0" y="29">DM Lab</tspan></text>
    <text id="_" data-name="+" transform="translate(224.352 98.695) rotate(73)" fill="red" font-size="40" font-family="Calibri"><tspan x="0" y="38">+</tspan></text>
  </g>
</svg>
